<?xml version="1.0" encoding="utf-8"?>
<!-- Generator: Adobe Illustrator 25.2.1, SVG Export Plug-In . SVG Version: 6.00 Build 0)  -->
<svg version="1.1" id="Capa_1" xmlns="http://www.w3.org/2000/svg" xmlns:xlink="http://www.w3.org/1999/xlink" x="0px" y="0px"
	 viewBox="0 0 208.2 48" style="enable-background:new 0 0 208.2 48;" xml:space="preserve">
<style type="text/css">
	.st0{fill:#333333;}
	.st1{fill:#D82633;}
</style>
<g>
	<path class="st0" d="M30.5,2.1c3.1,1.4,5.4,3.3,7.1,5.9c1.6,2.6,2.5,5.6,2.5,9.1c0,3.5-0.8,6.5-2.5,9.1c-1.6,2.6-4,4.5-7.1,5.9
		c-3.1,1.4-6.7,2.1-10.8,2.1H8.9v13.8H0V0h19.7C23.8,0,27.5,0.7,30.5,2.1z M28.1,24.1c2-1.6,3-4,3-7c0-3.1-1-5.4-3-7
		c-2-1.6-4.9-2.5-8.8-2.5H8.9v19h10.4C23.2,26.5,26.1,25.7,28.1,24.1z"/>
	<path class="st0" d="M94,0.1h7.8v46H94V0.1z"/>
	<path class="st0" d="M130.9,16.2c2.6,2.3,3.9,5.9,3.9,10.6v19.4h-7.3v-4c-1,1.4-2.3,2.6-4.1,3.3c-1.8,0.8-3.9,1.1-6.4,1.1
		s-4.7-0.4-6.5-1.3s-3.3-2-4.3-3.5c-1-1.5-1.5-3.2-1.5-5.1c0-3,1.1-5.4,3.3-7.2c2.2-1.8,5.7-2.7,10.4-2.7h8.6v-0.5
		c0-2.3-0.7-4.1-2.1-5.3c-1.4-1.2-3.4-1.9-6.2-1.9c-1.9,0-3.7,0.3-5.5,0.9c-1.8,0.6-3.3,1.4-4.6,2.4l-3-5.6c1.7-1.3,3.8-2.3,6.3-3
		c2.4-0.7,5-1.1,7.8-1.1C124.6,12.7,128.3,13.8,130.9,16.2z M123.8,39.6c1.5-0.9,2.6-2.2,3.2-3.8v-3.8h-8c-4.5,0-6.7,1.5-6.7,4.4
		c0,1.4,0.6,2.5,1.7,3.3c1.1,0.8,2.7,1.2,4.7,1.2C120.6,40.9,122.3,40.5,123.8,39.6z"/>
	<path class="st0" d="M157.3,13v7.1c-0.7-0.1-1.3-0.2-1.8-0.2c-3,0-5.4,0.9-7.1,2.6c-1.7,1.8-2.5,4.3-2.5,7.6v16.1h-7.8V13h7.4v4.8
		C147.8,14.4,151.7,13,157.3,13z"/>
	<g>
		<path class="st1" d="M205.9,38.4c1.5-2.7,2.3-5.8,2.3-9c0-10.3-8.3-18.6-18.6-18.6c-5.7,0-10.8,2.9-14.2,6.6
			c-4.7,5-8.6,6.5-14.3,6.5c-0.9,0-2.3-0.2-3.3-0.3c-0.4-0.1-0.6,0.4-0.3,0.7c4.2,3.8,8.1,5.3,13.3,5.2c5.1-0.1,9.8-2.2,13.1-5.6
			c1.5-1.5,3.5-2.5,5.8-2.5c4.4,0,8,3.6,8,8c0,1.8-0.7,3.6-1.6,4.8c-1.6,2-3.8,3.2-6.4,3.2c-4,0-7.3-3-7.9-6.8
			c0-0.3-0.3-0.4-0.6-0.3c-0.6,0.3-1.2,0.6-1.8,0.9c-2.4,1.1-4.9,1.7-7.6,1.8c-0.2,0-0.4,0.2-0.4,0.5c1.8,8.3,9.3,14.6,18.2,14.6
			C196.6,48,202.7,44.1,205.9,38.4z"/>
	</g>
	<path class="st0" d="M64.6,16.2c-2.6-2.3-6.3-3.5-11.2-3.5c-2.7,0-5.3,0.4-7.8,1.1c-1.1,0.3-1.9,0.6-2.9,1.1
		c0.2,1.2,0.3,2.3,0.2,3.5c-0.1,1.2-0.3,3.1-0.5,4c0,0.1,0.1,0.1,0.1,0.1c0.7-0.6,2.9-1.8,4.4-2.3c1.8-0.6,3.6-0.9,5.5-0.9
		c2.7,0,4.8,0.6,6.2,1.9c1.4,1.2,2.1,3,2.1,5.3v0.5h-8.6c-4.8,0-8.2,0.9-10.4,2.7c-2.2,1.8-3.3,4.2-3.3,7.2c0,1.9,0.5,3.6,1.5,5.1
		c1,1.5,2.4,2.7,4.3,3.5s4,1.3,6.5,1.3s4.6-0.4,6.4-1.1c1.8-0.8,3.1-1.9,4.1-3.3v4h7.3V26.7C68.4,22,67.2,18.5,64.6,16.2z
		 M60.7,35.8c-0.6,1.7-1.7,2.9-3.2,3.8c-1.5,0.9-3.2,1.3-5.2,1.3c-2,0-3.5-0.4-4.7-1.2c-1.1-0.8-1.7-1.9-1.7-3.3
		c0-2.9,2.2-4.4,6.7-4.4h8V35.8z"/>
	<g>
		<path class="st0" d="M160.5,20.7c0.3,0,0.5,0,0.6,0c2.9,0,5.1-0.4,7.2-1.6V13h-7.8V20.7z"/>
		<path class="st0" d="M164.4,9.4c1.4,0,2.6-0.5,3.6-1.4c0.9-0.9,1.4-2.1,1.4-3.4c0-1.3-0.5-2.3-1.4-3.2c-1-0.8-2.1-1.3-3.5-1.3
			c-1.4,0-2.6,0.4-3.5,1.3c-1,0.9-1.4,2-1.4,3.3c0,1.3,0.5,2.4,1.4,3.3C161.8,9,163,9.4,164.4,9.4z"/>
		<path class="st0" d="M168.2,33.2v-0.6c-2.8-0.2-5.3-1-7.8-2.2v15.8h7.8V33.5C168.2,33.4,168.2,33.3,168.2,33.2z"/>
	</g>
	<path class="st0" d="M90.9,13v7.1c-0.7-0.1-1.3-0.2-1.8-0.2c-3,0-5.4,0.9-7.1,2.6c-1.7,1.8-2.5,4.3-2.5,7.6v16.1h-7.8V13h7.4v4.8
		C81.3,14.4,85.3,13,90.9,13z"/>
</g>
</svg>
